<svg xmlns="http://www.w3.org/2000/svg" width="659" height="551" fill="none" viewBox="0 0 659 551"><rect width="43.487" height="43.487" y="342.881" fill="#54FFBD"/><rect width="43.487" height="43.487" x="108.717" y="299.394" fill="#54FFBD"/><rect width="43.487" height="43.487" x="108.717" y="342.881" fill="#54FFBD"/><rect width="43.487" height="43.487" x="152.205" y="299.394" fill="#54FFBD"/><rect width="43.487" height="43.487" x="528.539" y="277.65" fill="#54FFBD"/><rect width="43.487" height="43.487" x="396.404" y="277.65" fill="#54FFBD"/><rect width="43.487" height="43.487" x="481.705" y="152.205" fill="#54FFBD"/><rect width="43.487" height="45.16" x="440" y="420" fill="#000"/><rect width="43.487" height="43.487" x="483.488" y="465.16" fill="#54FFBD"/><rect width="43.487" height="43.487" x="222" y="109" fill="#54FFBD"/><rect width="43.487" height="43.487" x="265.486" y="109" fill="#54FFBD"/><rect width="43.487" height="43.487" x="352.488" y="234.487" fill="#54FFBD"/><rect width="43.487" height="43.487" x="528.539" y="234.162" fill="#5A61EF"/><rect width="43.487" height="43.487" x="152" y="464" fill="#54FFBD"/><rect width="43.487" height="43.487" x="207.195" y="507.487" fill="#54FFBD"/><rect width="43.487" height="43.487" x="485.051" y="321" fill="#5A61EF"/><rect width="43.487" height="43.487" x="528.539" y="419.684" fill="#5A61EF"/><rect width="43.487" height="43.487" x="572.027" y="376.195" fill="#5A61EF"/><rect width="43.487" height="43.487" x="615.514" y="419.684" fill="#54FFBD"/><rect width="43.487" height="43.487" x="309" y="191" fill="#54FFBD"/><rect width="43.487" height="43.487" x="352.488" y="191" fill="#5A61EF"/><rect width="43.487" height="43.487" x="109" y="43" fill="#54FFBD"/><rect width="43.487" height="43.487" x="615.514" y="463.17" fill="#5A61EF"/><rect width="43.487" height="43.487" x="615.514" y="224.127" fill="#5A61EF"/><rect width="43.487" height="43.487" x="615.514" y="43.487" fill="#000"/><rect width="43.487" height="43.487" x="572.027" fill="#54FFBD"/></svg>