<svg xmlns="http://www.w3.org/2000/svg" id="Layer_1" x="0" y="0" version="1.1" viewBox="0 0 16 16" xml:space="preserve"><style>.st0{fill:#0060df}</style><path d="M12 0H4C2.9 0 2 .9 2 2v2c0 .6.4 1 1 1s1-.4 1-1V2.5c0-.3.2-.5.5-.5h7c.3 0 .5.2.5.5v10c0 .3-.2.5-.5.5h-7c-.3 0-.5-.2-.5-.5V11c0-.6-.4-1-1-1s-1 .4-1 1v3c0 1.1.9 2 2 2h8c1.1 0 2-.9 2-2V2c0-1.1-.9-2-2-2zM9 15H7v-1h2v1z" class="st0"/><path d="M5.1 10.1c-.2.2-.2.5 0 .7s.5.2.7 0l3-3c.2-.1.2-.5.1-.7l-3-3c-.2-.1-.6-.1-.8.1-.1.2-.1.5 0 .7L7.3 7H.5c-.3 0-.5.2-.5.5s.2.5.5.5h6.8l-2.2 2.1z" class="st0"/></svg>