<svg xmlns="http://www.w3.org/2000/svg" xmlns:xlink="http://www.w3.org/1999/xlink" width="67" height="66" viewBox="0 0 67 66"><defs><circle id="a" cx="33" cy="33" r="33"/><linearGradient id="c" x1="76.252%" x2="80.354%" y1="15.493%" y2="28.438%"><stop offset="0%" stop-color="#FF298A"/><stop offset="25.731%" stop-color="#FF3750"/><stop offset="45.201%" stop-color="#FF4F5E"/><stop offset="66.182%" stop-color="#FF4558"/><stop offset="100%" stop-color="#FF7139"/></linearGradient><linearGradient id="d" x1="80.268%" x2="89.44%" y1="55.401%" y2="65.566%"><stop offset="0%" stop-color="#B833E1"/><stop offset="100%" stop-color="#F82C92"/></linearGradient><linearGradient id="e" x1="50%" x2="55.507%" y1="55.901%" y2="69.015%"><stop offset="0%" stop-color="#971DB5"/><stop offset="100%" stop-color="#9059FF"/></linearGradient></defs><g fill="none" fill-rule="evenodd" transform="matrix(-1 0 0 1 66.5 0)"><mask id="b" fill="#fff"><use xlink:href="#a"/></mask><use fill="#D8D8D8" xlink:href="#a"/><g fill-rule="nonzero" mask="url(#b)"><path fill="url(#c)" d="M544.212 1223.253c63.54 41.564 81.599 127.143 40.336 191.145-41.263 64.003-126.223 82.194-189.763 40.63C111.556 1269.756 31.063 888.283 215 602.982c183.929-285.29 562.641-366.375 845.867-181.105 63.54 41.564 81.599 127.142 40.335 191.145-41.263 64.003-126.223 82.194-189.762 40.63-156.147-102.142-364.94-57.438-466.342 99.846-101.411 157.297-57.033 367.612 99.114 469.755z" transform="scale(-1 1) rotate(-44 -270.403 1595.93)"/><path fill="url(#d)" d="M967.379 540.166c71.639 24.847 109.726 103.465 85.07 175.596-24.657 72.132-102.72 110.463-174.36 85.615L317.483 606.932c-71.64-24.847-109.727-103.465-85.07-175.596 24.656-72.132 102.72-110.463 174.358-85.615L967.38 540.166z" transform="scale(-1 1) rotate(-65 -96.658 1224.954)"/><path fill="url(#e)" d="M741.808 278.015c38.474-38.759 100.852-38.759 139.326 0 38.474 38.758 38.474 101.597 0 140.356L540.507 761.516c-38.473 38.758-100.85 38.758-139.325.001L60.542 418.372c-38.474-38.758-38.475-101.597-.002-140.356 38.474-38.76 100.852-38.76 139.326-.003l270.977 272.97 270.965-272.968z" transform="rotate(103 547.737 250.524)"/></g></g></svg>