<svg xmlns="http://www.w3.org/2000/svg" xmlns:xlink="http://www.w3.org/1999/xlink" width="67" height="66" viewBox="0 0 67 66"><defs><circle id="a" cx="33" cy="33" r="33"/><linearGradient id="c" x1="76.252%" x2="80.354%" y1="15.493%" y2="28.438%"><stop offset="0%" stop-color="#FF298A"/><stop offset="25.731%" stop-color="#FF3750"/><stop offset="45.201%" stop-color="#FF4F5E"/><stop offset="66.182%" stop-color="#FF4558"/><stop offset="100%" stop-color="#FF7139"/></linearGradient><linearGradient id="d" x1="80.268%" x2="89.44%" y1="55.401%" y2="65.566%"><stop offset="0%" stop-color="#B833E1"/><stop offset="100%" stop-color="#F82C92"/></linearGradient><linearGradient id="e" x1="50%" x2="55.507%" y1="55.901%" y2="69.015%"><stop offset="0%" stop-color="#971DB5"/><stop offset="100%" stop-color="#9059FF"/></linearGradient></defs><g fill="none" fill-rule="evenodd" transform="translate(.5)"><mask id="b" fill="#fff"><use xlink:href="#a"/></mask><use fill="#D8D8D8" xlink:href="#a"/><g fill-rule="nonzero" mask="url(#b)"><path fill="url(#c)" d="M677.1 1299.02c63.54 41.564 81.6 127.143 40.336 191.146-41.263 64.003-126.223 82.193-189.763 40.63-283.229-185.272-363.722-566.745-179.785-852.047 183.929-285.29 562.641-366.374 845.867-181.105 63.54 41.564 81.599 127.143 40.336 191.146-41.264 64.003-126.223 82.193-189.763 40.63-156.146-102.142-364.94-57.439-466.342 99.846-101.41 157.297-57.033 367.612 99.115 469.754z" transform="scale(-1 1) rotate(13 3432.303 -5003.916)"/><path fill="url(#d)" d="M991.993 588.063c71.64 24.847 109.726 103.465 85.07 175.596-24.657 72.132-102.72 110.463-174.359 85.615L342.096 654.83c-71.64-24.847-109.726-103.464-85.07-175.596 24.656-72.132 102.72-110.463 174.359-85.615l560.608 194.445z" transform="scale(-1 1) rotate(-8 -5157.306 7806.582)"/><path fill="url(#e)" d="M748.566 273.289c38.474-38.758 100.852-38.758 139.326 0 38.473 38.758 38.473 101.598 0 140.356L547.265 756.79c-38.474 38.758-100.85 38.759-139.325.002L67.3 413.646C28.827 374.89 28.826 312.05 67.299 273.29s100.852-38.76 139.326-.002l270.977 272.97 270.965-272.969z" transform="rotate(46 1172.573 -183.656)"/></g></g></svg>