<svg xmlns="http://www.w3.org/2000/svg" width="194" height="124" viewBox="0 0 194 124"><g fill="none" fill-rule="evenodd" transform="translate(2 2)"><path d="M0 0h160v27H0z" style="fill:#0080ff"/><path stroke-linecap="round" stroke-linejoin="round" stroke-width="5" d="M129.2 107.9H10.4c-5.4 0-9.8-4.4-9.8-9.8V.6h158.6V18M.6 27.1H128" style="stroke:#0080ff"/><g fill="#592ACB" transform="translate(10 10)"><circle cx="3.3" cy="3.9" r="3.2" style="fill:#fff"/><circle cx="16.1" cy="3.9" r="3.2" style="fill:#fff"/><circle cx="28.8" cy="3.9" r="3.2" style="fill:#fff"/></g><path fill="#FFF" d="M186 119.4h-53.3c-1.9 0-3.4-1.6-3.4-3.4V21.4c0-1.9 1.6-3.4 3.4-3.4H186c1.9 0 3.4 1.6 3.4 3.4v94.5c0 1.9-1.5 3.5-3.4 3.5z"/><path d="M129 89h61v30h-61z"/><path stroke-linecap="round" stroke-linejoin="round" stroke-width="5" d="M186 119.4h-53.3c-1.9 0-3.4-1.6-3.4-3.4V21.4c0-1.9 1.6-3.4 3.4-3.4H186c1.9 0 3.4 1.6 3.4 3.4v94.5c0 1.9-1.5 3.5-3.4 3.5z" style="stroke:#0e59e1"/><path stroke-linecap="round" stroke-linejoin="round" stroke-width="5" d="M19.1 42.5h46.7M79.5 42.5h33.4M19.1 59.4h78.3M19.1 78.2h87.6" style="stroke:#00c7d8"/><circle cx="159.2" cy="104.1" r="5.8" stroke-linecap="round" stroke-linejoin="round" stroke-width="5" style="stroke:#0e59e1;fill:#0080ff"/><g stroke="#952BB9" stroke-linecap="round" stroke-linejoin="round" stroke-width="5"><path d="M139 36h19.3M166.7 36h12.6M139 53.2h31.9M139 71.7h40.4" style="stroke:#01c7d8"/></g><path stroke-linecap="round" stroke-linejoin="round" stroke-width="5" d="M132.5 89.7h56" style="stroke:#0e59e1"/></g></svg>