<svg xmlns="http://www.w3.org/2000/svg" width="41" height="55" fill="none"><path fill="#333336" fill-rule="evenodd" stroke="#F8F6F4" stroke-linecap="round" stroke-linejoin="round" stroke-width="1.8" d="M24.987 1.441H6.144a4.711 4.711 0 0 0-4.711 4.711v42.399a4.711 4.711 0 0 0 4.71 4.711H34.41a4.711 4.711 0 0 0 4.711-4.711V15.574L24.987 1.441Z" clip-rule="evenodd"/><path fill="#333336" fill-rule="evenodd" d="M24.258 2.172v14.133H38.39" clip-rule="evenodd"/><path stroke="#F8F6F4" stroke-linecap="round" stroke-linejoin="round" stroke-width="1.8" d="M24.258 2.172v14.133H38.39m-21.951 22.39h-4.14a2.07 2.07 0 1 0 0 4.14h2.07a2.07 2.07 0 0 0 2.07-2.07v-2.07Zm12.418-2.07h-4.14a2.07 2.07 0 0 0 0 4.14h2.07a2.07 2.07 0 0 0 2.07-2.07v-2.07Z"/><path stroke="#F8F6F4" stroke-linecap="round" stroke-linejoin="round" stroke-width="1.8" d="M16.438 38.695V26.277l12.418-2.07v12.419"/></svg>