<?xml version="1.0" encoding="utf-8"?>
<!-- Generator: Adobe Illustrator 22.1.0, SVG Export Plug-In . SVG Version: 6.00 Build 0)  -->
<svg version="1.1" id="Layer_1" xmlns="http://www.w3.org/2000/svg" xmlns:xlink="http://www.w3.org/1999/xlink" x="0px" y="0px"
	 viewBox="0 0 330 185" style="enable-background:new 0 0 330 185;" xml:space="preserve">
<style type="text/css">
	.st0{fill:none;stroke:#000000;stroke-width:1.402;stroke-linecap:round;stroke-linejoin:round;}
	.st1{fill:url(#SVGID_1_);}
	.st2{fill:#6551D8;stroke:#000000;stroke-width:1.402;stroke-linecap:round;stroke-linejoin:round;}
	.st3{fill:#CDD0FF;}
	.st4{fill:none;stroke:#000000;stroke-width:1.402;stroke-miterlimit:10;}
</style>
<path class="st0" d="M93.3,102.1c0.4,3.8,1,7.6,2,11.4"/>
<path class="st0" d="M93.9,83.6c-0.6,3.8-0.9,7.7-0.9,11.5"/>
<path class="st0" d="M97.7,120.9c10.7,27.9,37.4,46.3,67.3,46.3c39.8,0,72-32.2,72-72s-32.2-72-72-72c-33,0-61.9,22.5-69.9,54.5"/>
<linearGradient id="SVGID_1_" gradientUnits="userSpaceOnUse" x1="108.4102" y1="391.2831" x2="209.6136" y2="391.2831" gradientTransform="matrix(1 0 0 -1 0 453.8352)">
	<stop  offset="8.992000e-02" style="stop-color:#CDD0FF"/>
	<stop  offset="0.8354" style="stop-color:#BC94FF"/>
</linearGradient>
<path class="st1" d="M153.7,48.4c14.2,0,26.9,6.7,35.2,17.2l20.7-9.7C199.3,41.9,183.1,33,165,33c-31.2,0-56.4,26.4-56.6,59.1
	C109.9,67.7,129.6,48.4,153.7,48.4z"/>
<line class="st0" x1="108.3" y1="95.1" x2="118.3" y2="95.1"/>
<line class="st0" x1="165" y1="151.8" x2="165" y2="141.9"/>
<line class="st0" x1="205.1" y1="135.2" x2="198.1" y2="128.2"/>
<path class="st0" d="M221.7,95.1c0,31.3-25.4,56.7-56.7,56.7c-31.3,0-56.7-25.4-56.7-56.7"/>
<line class="st0" x1="221.7" y1="95.1" x2="211.8" y2="95.1"/>
<line class="st0" x1="124.9" y1="135.2" x2="132" y2="128.2"/>
<path class="st2" d="M155.7,105.8L155.7,105.8c4.4,5.1,12.1,5.7,17.2,1.3c0.6-0.5,1.1-1,1.5-1.6l35.1-43.3l-50,24.7
	c-6,3-8.5,10.3-5.5,16.3C154.5,104.2,155.1,105,155.7,105.8z"/>
<path class="st3" d="M315.6,151.1c-2.7,0-5.4,0.9-7.5,2.7c-3.7-12-16.4-18.7-28.4-14.9c-5.5,1.7-10.2,5.5-13.1,10.6
	c-7.3-1.4-14.3,3.3-15.7,10.6c-0.2,0.8-0.2,1.7-0.2,2.6h76.8C327.3,156.2,322,151.1,315.6,151.1z"/>
<path class="st4" d="M294.2,157.3c-2.7,0-5.4,0.9-7.5,2.7c-3.7-12-16.4-18.7-28.4-14.9c-5.5,1.7-10.2,5.5-13.1,10.6
	c-7.3-1.4-14.3,3.3-15.7,10.6c-0.2,0.8-0.2,1.7-0.2,2.6h76.8C305.8,162.3,300.6,157.3,294.2,157.3z"/>
<circle class="st4" cx="23" cy="63.9" r="3.1"/>
<line class="st0" x1="71.2" y1="152.8" x2="78.1" y2="152.8"/>
<line class="st0" x1="74.7" y1="156.2" x2="74.7" y2="149.3"/>
<circle class="st4" cx="260.6" cy="62.3" r="3.1"/>
<line class="st0" x1="295.3" y1="102.1" x2="302.2" y2="102.1"/>
<line class="st0" x1="298.8" y1="105.5" x2="298.8" y2="98.6"/>
<line class="st0" x1="102.4" y1="113.5" x2="41.1" y2="113.5"/>
<line class="st0" x1="102.4" y1="77.7" x2="41.1" y2="77.7"/>
<line class="st0" x1="93" y1="95.1" x2="53.1" y2="95.1"/>
<line class="st0" x1="108.3" y1="95.1" x2="93" y2="95.1"/>
<line class="st0" x1="71.5" y1="44.3" x2="2.5" y2="44.3"/>
<line class="st0" x1="103.3" y1="36.6" x2="15.5" y2="36.6"/>
<path class="st0" d="M75.2,26.1c-2.5,0-4.9,0.9-6.9,2.4c-3.4-11-15.1-17.1-26.1-13.7c-5.1,1.6-9.4,5.1-12,9.7
	c-6.7-1.3-13.2,3.1-14.4,9.8c-0.1,0.8-0.2,1.6-0.2,2.3h70.6C85.9,30.8,81.1,26.1,75.2,26.1z"/>
</svg>
