<?xml version="1.0" encoding="utf-8"?>
<!-- Generator: Adobe Illustrator 22.1.0, SVG Export Plug-In . SVG Version: 6.00 Build 0)  -->
<svg version="1.1" id="Layer_1" xmlns="http://www.w3.org/2000/svg" xmlns:xlink="http://www.w3.org/1999/xlink" x="0px" y="0px"
	 viewBox="0 0 330 185" style="enable-background:new 0 0 330 185;" xml:space="preserve">
<style type="text/css">
	.st0{fill:#C3C5FF;}
	.st1{fill:none;stroke:#000000;stroke-width:1.6059;stroke-miterlimit:10;}
	.st2{fill:#C2C6FF;}
	.st3{fill:none;stroke:#C3C5FF;stroke-width:1.0706;stroke-linejoin:round;}
	.st4{fill:#FFFFFF;stroke:#000000;stroke-width:1.6059;stroke-linejoin:round;}
	.st5{fill:none;stroke:#000000;stroke-width:1.6059;stroke-linecap:round;stroke-linejoin:round;}
	.st6{fill:#AD79FF;stroke:#000000;stroke-width:1.6059;stroke-miterlimit:10;}
	.st7{fill:#6F4AE7;}
	.st8{fill:none;stroke:#000000;stroke-width:1.6059;stroke-linecap:round;}
</style>
<path class="st0" d="M150.5,97.5H65.6c-1.6,0-2.8,1.3-2.8,2.8v64.8c0,1.6,1.3,2.8,2.8,2.8h84.9c1.6,0,2.8-1.3,2.8-2.8v-64.8
	C153.4,98.8,152.1,97.5,150.5,97.5z"/>
<path class="st1" d="M123.9,183.5c1.5,0,2.7-1.2,2.7-2.7c0-1.5-1.2-2.7-2.7-2.7c-1.5,0-2.7,1.2-2.7,2.7
	C121.3,182.3,122.4,183.5,123.9,183.5z"/>
<path class="st1" d="M49,135.3c1.5,0,2.7-1.2,2.7-2.7c0-1.5-1.2-2.7-2.7-2.7c-1.5,0-2.7,1.2-2.7,2.7C46.3,134.1,47.5,135.3,49,135.3
	z"/>
<path class="st2" d="M65.6,97.7c-1.5,0-2.7,1.2-2.7,2.7v64.8c0,1.5,1.2,2.7,2.7,2.7h84.9c1.5,0,2.7-1.2,2.7-2.7v-64.8
	c0-1.5-1.2-2.7-2.7-2.7H65.6z M62.7,100.3c0-1.6,1.3-3,3-3h84.9c1.6,0,3,1.3,3,3v64.8c0,1.6-1.3,3-3,3H65.6c-1.6,0-3-1.3-3-3V100.3z
	"/>
<path class="st0" d="M240.9,28.2H74.5v30h166.4V28.2z"/>
<path class="st3" d="M240.9,28.2H74.5v30h166.4V28.2z"/>
<path class="st4" d="M240.9,59.1H74.5v98.1h166.4V59.1z"/>
<path class="st1" d="M88.1,46.5c2.4,0,4.3-1.9,4.3-4.3s-1.9-4.3-4.3-4.3s-4.3,1.9-4.3,4.3S85.7,46.5,88.1,46.5z"/>
<path class="st1" d="M105.2,46.5c2.4,0,4.3-1.9,4.3-4.3s-1.9-4.3-4.3-4.3s-4.3,1.9-4.3,4.3S102.8,46.5,105.2,46.5z"/>
<path class="st1" d="M122.3,46.5c2.4,0,4.3-1.9,4.3-4.3s-1.9-4.3-4.3-4.3s-4.3,1.9-4.3,4.3S120,46.5,122.3,46.5z"/>
<path class="st5" d="M97.7,4.7h6.4"/>
<path class="st5" d="M100.9,7.9V1.5"/>
<path class="st4" d="M196.8,122.7v-14.3c0-5.3,2.1-10.3,5.8-14.1c3.7-3.7,8.8-5.8,14-5.8c5.3,0,10.3,2.1,14,5.8
	c3.7,3.7,5.8,8.8,5.8,14.1v14.3h11.3v-13.4c0-8.3-3.3-16.2-9.1-22c-5.8-5.8-13.7-9.1-22-9.1c-8.2,0-16.2,3.3-22,9.1
	c-5.8,5.8-9.1,13.8-9.1,22v13.4H196.8z"/>
<path class="st6" d="M249.1,121.9h-65c-2.8,0-5,2.2-5,5v47.4c0,2.8,2.2,5,5,5h65c2.8,0,5-2.2,5-5v-47.4
	C254.1,124.2,251.9,121.9,249.1,121.9z"/>
<path class="st4" d="M224.7,146.2c0,1.4-0.3,2.7-1,3.9c-0.7,1.2-1.6,2.2-2.8,2.9v5.8c0,1.1-0.5,2.3-1.3,3.1
	c-0.8,0.8-1.9,1.3-3.1,1.3c-1.1,0-2.2-0.5-3.1-1.3c-0.8-0.8-1.3-1.9-1.3-3.1v-5.8c-1.2-0.8-2.2-1.8-2.8-3.1c-0.7-1.2-1-2.6-0.9-4.1
	c0-1.4,0.4-2.8,1.2-4c0.7-1.2,1.8-2.2,3-2.9c1.2-0.7,2.6-1,4-1c1.4,0,2.8,0.4,4,1.1c1.2,0.7,2.2,1.7,2.9,3
	C224.4,143.4,224.7,144.8,224.7,146.2L224.7,146.2z"/>
<path class="st7" d="M128.2,96.4c-0.5-0.8-1.2-1.4-2.1-1.6c-0.9-0.2-1.8-0.1-2.6,0.3l-7.6,4.4v-8.8c0-0.9-0.4-1.8-1-2.4
	c-0.6-0.6-1.5-1-2.4-1c-0.9,0-1.8,0.4-2.4,1c-0.6,0.6-1,1.5-1,2.4v8.8l-7.6-4.4c-0.4-0.2-0.8-0.4-1.3-0.4c-0.5-0.1-0.9,0-1.3,0.1
	c-0.4,0.1-0.9,0.3-1.2,0.6c-0.4,0.3-0.7,0.6-0.9,1c-0.2,0.4-0.4,0.8-0.4,1.3c-0.1,0.5,0,0.9,0.1,1.4c0.1,0.4,0.3,0.9,0.6,1.2
	c0.3,0.4,0.6,0.7,1,0.9l7.6,4.4l-7.6,4.4c-0.4,0.2-0.7,0.5-1,0.9c-0.3,0.4-0.5,0.8-0.6,1.2c-0.1,0.4-0.1,0.9-0.1,1.4
	c0.1,0.5,0.2,0.9,0.4,1.3c0.2,0.4,0.5,0.7,0.9,1c0.4,0.3,0.8,0.5,1.2,0.6c0.4,0.1,0.9,0.1,1.3,0.1c0.5-0.1,0.9-0.2,1.3-0.4l7.6-4.4
	v8.8c0,0.5,0.1,0.9,0.2,1.4c0.2,0.4,0.4,0.8,0.7,1.2c0.3,0.3,0.7,0.6,1.1,0.8c0.4,0.2,0.9,0.3,1.3,0.3c0.5,0,0.9-0.1,1.3-0.3
	c0.4-0.2,0.8-0.4,1.1-0.8c0.3-0.3,0.6-0.7,0.7-1.2c0.2-0.4,0.2-0.9,0.2-1.4v-8.8l7.6,4.4c0.8,0.4,1.7,0.5,2.6,0.3
	c0.9-0.2,1.6-0.8,2.1-1.6c0.5-0.8,0.6-1.7,0.4-2.6c-0.2-0.9-0.8-1.6-1.6-2.1l-7.6-4.4l7.6-4.4c0.4-0.2,0.7-0.5,1-0.9
	c0.3-0.4,0.5-0.8,0.6-1.2c0.1-0.4,0.1-0.9,0.1-1.4C128.6,97.2,128.5,96.8,128.2,96.4L128.2,96.4z"/>
<path class="st7" d="M172.6,96.4c-0.5-0.8-1.2-1.4-2.1-1.6c-0.9-0.2-1.8-0.1-2.6,0.3l-7.6,4.4v-8.8c0-0.9-0.4-1.8-1-2.4
	c-0.6-0.6-1.5-1-2.4-1c-0.9,0-1.8,0.4-2.4,1c-0.6,0.6-1,1.5-1.1,2.4v8.8l-7.6-4.4c-0.4-0.2-0.8-0.4-1.3-0.5c-0.5-0.1-0.9,0-1.4,0.1
	c-0.4,0.1-0.9,0.3-1.2,0.6c-0.4,0.3-0.7,0.6-0.9,1c-0.2,0.4-0.4,0.8-0.4,1.3c-0.1,0.5,0,0.9,0.1,1.4c0.1,0.4,0.3,0.9,0.6,1.2
	c0.3,0.4,0.6,0.7,1,0.9l7.6,4.4l-7.6,4.4c-0.8,0.5-1.3,1.2-1.6,2.1c-0.2,0.9-0.1,1.8,0.4,2.6c0.5,0.8,1.2,1.4,2.1,1.6
	s1.8,0.1,2.6-0.3l7.6-4.4v8.8c0,0.5,0.1,0.9,0.2,1.4c0.2,0.4,0.4,0.8,0.7,1.2c0.3,0.3,0.7,0.6,1.1,0.8c0.4,0.2,0.9,0.3,1.4,0.3
	c0.5,0,0.9-0.1,1.4-0.3c0.4-0.2,0.8-0.4,1.1-0.8c0.3-0.3,0.6-0.7,0.7-1.2c0.2-0.4,0.2-0.9,0.2-1.4v-8.8l7.6,4.4
	c0.8,0.4,1.7,0.5,2.6,0.3c0.9-0.2,1.6-0.8,2.1-1.6c0.5-0.8,0.6-1.7,0.4-2.6c-0.2-0.9-0.8-1.6-1.6-2.1l-7.6-4.4l7.6-4.4
	c0.8-0.5,1.4-1.2,1.6-2.1C173.2,98.1,173,97.2,172.6,96.4L172.6,96.4z"/>
<line class="st8" x1="264.7" y1="104.2" x2="273.2" y2="95.7"/>
<line class="st8" x1="264.7" y1="144" x2="273.2" y2="152.5"/>
<line class="st8" x1="272.1" y1="131" x2="283.7" y2="134.1"/>
<line class="st8" x1="272.1" y1="116.5" x2="283.7" y2="113.3"/>
</svg>
