<?xml version="1.0" encoding="utf-8"?>
<!-- Generator: Adobe Illustrator 22.1.0, SVG Export Plug-In . SVG Version: 6.00 Build 0)  -->
<svg version="1.1" id="Layer_1" xmlns="http://www.w3.org/2000/svg" xmlns:xlink="http://www.w3.org/1999/xlink" x="0px" y="0px"
	 viewBox="0 0 330 185" style="enable-background:new 0 0 330 185;" xml:space="preserve">
<style type="text/css">
	.st0{fill:#CDD0FF;}
	.st1{fill:none;stroke:#000000;stroke-width:1.7763;stroke-miterlimit:10;}
	.st2{fill:none;stroke:#000000;stroke-width:1.7763;stroke-linecap:round;stroke-linejoin:round;}
	.st3{fill:#BC94FF;stroke:#000000;stroke-width:1.7763;stroke-linecap:round;stroke-linejoin:round;}
</style>
<path class="st0" d="M167.6,158c38.7,0,70.1-31.4,70.1-70.1c0-38.7-31.4-70.1-70.1-70.1c-38.7,0-70.1,31.4-70.1,70.1
	C97.5,126.6,128.9,158,167.6,158z"/>
<path class="st1" d="M223,8.4c1.6,0,3-1.3,3-3s-1.3-3-3-3c-1.6,0-3,1.3-3,3S221.4,8.4,223,8.4z"/>
<path class="st1" d="M119.4,182.5c1.6,0,3-1.3,3-3s-1.3-3-3-3s-3,1.3-3,3S117.8,182.5,119.4,182.5z"/>
<path class="st2" d="M72.6,53.2h7.1"/>
<path class="st2" d="M76.2,56.7v-7.1"/>
<path class="st2" d="M97.5,157.6h7.1"/>
<path class="st2" d="M101.1,161.2v-7.1"/>
<path class="st2" d="M249.7,25.9h7.1"/>
<path class="st2" d="M253.3,29.5v-7.1"/>
<path class="st2" d="M171.5,158c3.2,0,6.3-0.2,9.5-0.7"/>
<path class="st2" d="M237.7,91.8c0-36.6-29.7-66.2-66.2-66.2c-36.6,0-66.2,29.7-66.2,66.2c0,36.6,29.7,66.2,66.2,66.2"/>
<path class="st2" d="M250.6,110.9c1.5-6.2,2.3-12.6,2.2-19.1c0-44.9-36.4-81.4-81.4-81.4S90.1,46.8,90.1,91.8
	c0,44.9,36.4,81.4,81.4,81.4c8.8,0,17.5-1.4,25.8-4.2"/>
<path class="st2" d="M170.7,114.7c-4.9,0.1-9.7-1.3-13.8-3.9c-4.1-2.7-7.3-6.5-9.2-11c-1.9-4.5-2.3-9.5-1.3-14.3
	c1-4.8,3.4-9.2,7-12.5c3.5-3.4,8-5.6,12.8-6.4c4.8-0.8,9.8-0.1,14.2,1.9c4.4,2.1,8.1,5.4,10.6,9.6c2.5,4.2,3.7,9.1,3.4,13.9"/>
<path class="st2" d="M163.1,103.9c-2.4-1.3-4.3-3.1-5.8-5.4c-1.4-2.3-2.2-4.9-2.3-7.5c-0.1-2.7,0.5-5.3,1.8-7.7
	c1.3-2.4,3.1-4.3,5.4-5.8c2.3-1.4,4.9-2.2,7.5-2.3c2.7-0.1,5.3,0.5,7.7,1.8c2.4,1.3,4.3,3.1,5.8,5.4c1.4,2.3,2.2,4.9,2.3,7.5"/>
<path class="st3" d="M224.6,97.5l-0.5,0.3c-3,2.1-2.9,5.6-0.9,8.6l5,7l0,0l-7.9-11.2c-1-1.4-2.5-2.4-4.3-2.7
	c-1.7-0.3-3.5,0.1-4.9,1.1c-3,2.1-4,6.4-1.9,9.4l6.7,9.5v0l-9.9-14c-1-1.4-2.5-2.4-4.3-2.7c-1.7-0.3-3.5,0.1-4.9,1.1
	c-3,2.1-4,6.5-1.9,9.5l8.6,12.2l0,0l-26.1-37c-1-1.4-2.5-2.4-4.3-2.7s-3.5,0.1-4.9,1.1l0,0c-1.4,1-2.4,2.5-2.7,4.3
	c-0.3,1.7,0.1,3.5,1.1,4.9l27.6,39.2L203,148l-11.2-8c-1.5-1-3.3-1.4-5-1.1c-1.8,0.3-3.3,1.3-4.4,2.7l0,0c-1,1.5-1.4,3.3-1.1,5
	c0.3,1.8,1.3,3.3,2.7,4.4c0,0,23.7,17,25.1,17.8c4,2.4,8.6,3.9,13.3,4.4c4.7,0.5,9.4-0.1,13.9-1.7c4.4-1.6,8.5-4.1,11.8-7.4
	c3.3-3.3,5.9-7.3,7.5-11.8c0.1-0.2,0.1-0.3,0.2-0.5c1.6-4.8,2.1-9.9,1.4-14.9c-0.7-5-2.6-9.7-5.5-13.9l-12.2-17.4
	C232.6,96.2,227.7,95.7,224.6,97.5z"/>
</svg>
