<svg xmlns="http://www.w3.org/2000/svg" xmlns:xlink="http://www.w3.org/1999/xlink" id="Layer_1" x="0" y="0" version="1.1" viewBox="0 0 1650 810" xml:space="preserve" style="enable-background:new 0 0 1650 810"><style type="text/css">.st0{fill:url(#SVGID_1_)}</style><radialGradient id="SVGID_1_" cx="-133.925" cy="945.914" r="1" gradientTransform="matrix(1795.3101 0 0 -1566.8101 242058.9844 1482086.375)" gradientUnits="userSpaceOnUse"><stop offset="0" style="stop-color:#45278d"/><stop offset=".854" style="stop-color:#20123a"/></radialGradient><path d="M1650,0H0v810h1650V0z" class="st0"/><g><defs><path id="SVGID_00000011013715402145556560000014191673115021661113_" d="M1650,0H0v810h1650V0z"/></defs><clipPath id="SVGID_00000001651018361906771970000013740233891267943094_"><use xlink:href="#SVGID_00000011013715402145556560000014191673115021661113_" style="overflow:visible"/></clipPath><linearGradient id="SVGID_00000106833813447368810670000007774872010339046313_" x1="172.116" x2="-275.91" y1="620.735" y2="-6.066" gradientTransform="matrix(1 0 0 -1 0 812)" gradientUnits="userSpaceOnUse"><stop offset="0" style="stop-color:#b833e1"/><stop offset=".738" style="stop-color:#7542e5"/></linearGradient><path style="clip-path:url(#SVGID_00000001651018361906771970000013740233891267943094_);fill:url(#SVGID_00000106833813447368810670000007774872010339046313_)" d="M-487.4,598.8l431.9-110.6L55,920.3c32.8,128.1,163.1,205.3,291.1,172.5h0c128-32.8,205.2-163.2,172.4-291.3l-169.9-664v0 C315.8,9.5,185.5-67.8,57.5-35l0,0l-663.6,170c-128,32.8-205.2,163.2-172.4,291.3l0,0C-745.7,554.4-615.4,631.6-487.4,598.8z"/><linearGradient id="SVGID_00000141446170747842653260000011713214498153144212_" x1="758.545" x2="1981.821" y1="681.976" y2="334.423" gradientTransform="matrix(1 0 0 -1 0 812)" gradientUnits="userSpaceOnUse"><stop offset=".328" style="stop-color:#ff2a8a"/><stop offset=".656" style="stop-color:#ff9640"/></linearGradient><path style="clip-path:url(#SVGID_00000001651018361906771970000013740233891267943094_);fill:url(#SVGID_00000141446170747842653260000011713214498153144212_)" d="M4200.7-321.1c-88.9,362.3-454.4,583.9-816.5,494.9c-361.5-88.8-727.7,133.2-816.5,494.9c-88.7,361.7,133.1,728.2,494.6,817 c362,88.9,583.5,454.7,494.6,817c-88.9,362.3-454.4,583.9-816.5,494.9c-265.2-65.2-510-180.6-727.7-343 c-209.9-156.7-385.4-350.2-521.5-575s-226.2-470-267.8-728.8c-43.1-268.3-31.9-538.9,33.2-804.2 c65.1-265.4,180.4-510.4,342.8-728.2c156.6-210.1,349.9-385.7,574.6-521.9c224.7-136.2,469.7-226.4,728.3-268 c268.1-43.1,538.5-32,803.7,33.2C4068.2-1049.2,4289.6-683.4,4200.7-321.1z"/><linearGradient id="SVGID_00000006680858604739448170000007879135219371312812_" x1="328.777" x2="1232.63" y1="1116.511" y2="1116.511" gradientTransform="matrix(1 0 0 -1 0 812)" gradientUnits="userSpaceOnUse"><stop offset="0" style="stop-color:#ffde67"/><stop offset="1" style="stop-color:#ff9640"/></linearGradient><path style="clip-path:url(#SVGID_00000001651018361906771970000013740233891267943094_);fill:url(#SVGID_00000006680858604739448170000007879135219371312812_)" d="M780.7,147.7c249.6,0,451.9-202.5,451.9-452.2s-202.3-452.2-451.9-452.2c-249.6,0-451.9,202.5-451.9,452.2S531.1,147.7,780.7,147.7 z"/><linearGradient id="SVGID_00000005253702214741031760000009825116110155391147_" x1="97.882" x2="952.309" y1="-36.564" y2="79.527" gradientTransform="matrix(1 0 0 -1 0 812)" gradientUnits="userSpaceOnUse"><stop offset=".47" style="stop-color:#5d37b5"/><stop offset="1" style="stop-color:#3f2879"/></linearGradient><path style="clip-path:url(#SVGID_00000001651018361906771970000013740233891267943094_);fill:url(#SVGID_00000005253702214741031760000009825116110155391147_)" d="M720.4,523.2L-25.8,640.1C-151.8,659.8-237.9,778-218.1,904c19.7,126,137.8,212.2,263.7,192.5l746.2-116.9 c125.9-19.7,212-137.9,192.3-263.9C964.4,589.7,846.3,503.5,720.4,523.2z"/></g></svg>