<svg xmlns="http://www.w3.org/2000/svg" xmlns:xlink="http://www.w3.org/1999/xlink" style="enable-background:new 0 0 400 400" x="0" y="0" version="1.1" viewBox="0 0 400 400" xml:space="preserve"><style type="text/css">.st0{fill:#acd7f3}.st0,.st1,.st14,.st3{stroke:#000;stroke-width:5;stroke-miterlimit:10}.st1{fill:#fff}.st3{fill:#00b7aa}.st14{fill:#84cfc8}.st24{fill:#acd7f3}.st29{fill:#adddd8}.st33{fill:#6dc9c3}</style><g id="Layer_1"><g><g><rect width="188" height="22.8" x="173" y="144.1" class="st3"/><polygon points="237.2 165 196.2 165 199 155.1 234.4 155.1" class="st1"/><rect width="188.3" height="102.9" x="173" y="166.9" class="st1"/><rect width="188.3" height="12.9" x="173" y="166.9" class="st1"/></g><rect width="5.7" height="5.7" x="318" y="90.9" class="st29"/><rect width="5.7" height="5.7" x="157.3" y="88"/><rect width="5.7" height="5.7" x="285" y="119.9"/><rect width="5.7" height="5.7" x="60.7" y="108.5"/><rect width="5.7" height="5.7" x="74.8" y="124.9" class="st33"/><rect width="5.7" height="5.7" x="272.6" y="88.9" class="st24"/><g><path d="M262.2,126.1c-3.7-1.4-7.7-0.5-10.4,2l0-1.4l0.2-6.5l1-35.6c0.2-5.5-4.2-10.1-9.7-10.3 c-2.3-0.1-4.5,0.7-6.2,2l-6.8-0.2c-2.3-0.1-4.5,0.7-6.2,2l-4.9-0.1c-5.5-0.2-10.1,4.2-10.3,9.7l-0.1,4.1 c-5.4,0-13.8,4.4-14.1,15.1l-0.3,11.8l-0.9,31.8l0,45.1l43.8,67.5l50.6-28l-37.6-50.2l17.7-45.8 C269.9,133.8,267.4,128,262.2,126.1z" class="st0"/><line x1="208.8" x2="207.9" y1="91.8" y2="136.8" class="st14"/><path d="M220.3,135l1.4-49.1c0.2-5.5,4.8-9.9,10.3-9.7l4.6,0.1" class="st0"/><line x1="233.6" x2="235.2" y1="134.7" y2="78.5" class="st14"/><line x1="252.1" x2="239" y1="128.1" y2="162.6" class="st14"/></g><g><rect width="188" height="22.8" x="38.8" y="194" class="st3"/><polygon points="103 214.9 62.1 214.9 64.9 205 100.2 205" class="st1"/><rect width="188.3" height="102.9" x="38.8" y="216.8" class="st1"/><rect width="188.3" height="12.9" x="38.8" y="216.8" class="st1"/></g><g><path d="M87.1,147.7c3.7-1.5,7.7-0.6,10.4,1.9l-0.1-1.4l-0.3-6.5l-1.4-35.6c-0.2-5.5,4.1-10.2,9.6-10.4 c2.3-0.1,4.5,0.7,6.2,1.9l6.8-0.3c2.3-0.1,4.5,0.7,6.2,1.9l4.9-0.2c5.5-0.2,10.2,4.1,10.4,9.6l0.2,4.1c5.4,0,13.8,4.3,14.3,15 l0.5,11.8l1.2,31.8l0.5,45.1l-60.8,81.2l-43.7-35l47.7-56.3l-18.2-45.6C79.5,155.5,82,149.7,87.1,147.7z" class="st14"/><line x1="140.1" x2="141.5" y1="112.8" y2="157.8" class="st14"/><path d="M129.1,156.1l-1.9-49.1c-0.2-5.5-4.9-9.8-10.4-9.6l-4.6,0.2" class="st14"/><line x1="115.8" x2="113.7" y1="156" y2="99.9" class="st14"/><line x1="97.2" x2="110.6" y1="149.6" y2="184" class="st14"/></g></g></g></svg>