<svg xmlns="http://www.w3.org/2000/svg" xmlns:xlink="http://www.w3.org/1999/xlink" style="enable-background:new 0 0 400 400" x="0" y="0" version="1.1" viewBox="0 0 400 400" xml:space="preserve"><style type="text/css">.st1{fill:#fff;stroke:#000}.st1,.st6,.st7,.st8{stroke-width:5;stroke-miterlimit:10}.st6{fill:#d4e9f8;stroke:#d4e9f8}.st7,.st8{fill:none;stroke:#000}.st8{fill:#54c2b8}.st11{fill:#d4e9f8}.st15{fill:#82c7ee;stroke:#000;stroke-width:5;stroke-miterlimit:10}.st17{fill:#fff}.st18{fill:none;stroke:#000;stroke-width:5;stroke-linejoin:round;stroke-miterlimit:10}.st19{fill:#82c7ee}.st20{fill:#88d1f1}</style><g id="Layer_1"><g><path d="M264.1,143.6c0-15.3,12.4-27.8,27.8-27.8s27.8,12.4,27.8,27.8H264.1z" class="st11"/><path d="M319.7,143.6c0-6.3,5.1-11.4,11.4-11.4s11.4,5.1,11.4,11.4H319.7z" class="st11"/></g><g><path d="M163.3,222.2c0-15.3-12.4-27.8-27.8-27.8s-27.8,12.4-27.8,27.8H163.3z" class="st6"/><path d="M107.8,222.2c0-6.3-5.1-11.4-11.4-11.4c-6.3,0-11.4,5.1-11.4,11.4H107.8z" class="st6"/></g><g><line x1="324.4" x2="340.8" y1="286" y2="180.5" class="st7"/><polygon points="322.7 211.5 333.9 225 338.5 195.5 327.2 181.9" class="st8"/><polygon points="348.7 215.5 333.9 225 338.5 195.5 353.3 186" class="st1"/><g><line x1="83.9" x2="56.1" y1="286" y2="223.7" class="st7"/><polygon points="57.7 259.6 74.5 264.9 62.3 237.6 45.5 232.3" class="st8"/><polygon points="81.8 248.9 74.5 264.9 62.3 237.6 69.6 221.5" class="st1"/></g><polygon points="231.8 164.8 196.5 164.8 249.6 286 284.9 286" class="st8"/><polygon points="231.8 164.8 196.5 164.8 249.6 286 284.9 286" class="st18"/><polygon points="161.1 164.8 196.5 164.8 143.3 286 108 286" class="st8"/><circle cx="196.5" cy="181.2" r="91.6" class="st17"/><path d="M121.5,128.5c16.6-23.6,44-39,75-39c50.6,0,91.6,41,91.6,91.6s-41,91.6-91.6,91.6s-91.6-41-91.6-91.6" class="st7"/><circle cx="196.5" cy="181.2" r="61.7" class="st19"/><path d="M143,150.4c10.7-18.5,30.6-30.9,53.5-30.9c34.1,0,61.7,27.6,61.7,61.7s-27.6,61.7-61.7,61.7 s-61.7-27.6-61.7-61.7c0-2.2,0.1-4.4,0.3-6.5" class="st7"/><circle cx="196.5" cy="181.2" r="36.2" class="st17"/><path d="M166.9,160.3c6.6-9.3,17.4-15.3,29.6-15.3c20,0,36.2,16.2,36.2,36.2s-16.2,36.2-36.2,36.2 s-36.2-16.2-36.2-36.2" class="st7"/><circle cx="196.5" cy="181.2" r="10.1" class="st20"/><path d="M195.1,171.1c0.4-0.1,0.9-0.1,1.3-0.1c5.6,0,10.1,4.5,10.1,10.1c0,5.6-4.5,10.1-10.1,10.1 c-2.8,0-5.3-1.1-7.1-2.9" class="st7"/><line x1="311.3" x2="359.9" y1="286" y2="286" class="st18"/><line x1="183.6" x2="301" y1="286" y2="286" class="st18"/><line x1="40.1" x2="166.1" y1="286" y2="286" class="st18"/><line x1="196.5" x2="77.2" y1="181.2" y2="144.3" class="st18"/><polygon points="116.9 142.7 124.1 158.8 95.5 150 88.3 133.9" class="st1"/><polygon points="109.1 167.9 124.1 158.8 95.5 150 80.5 159.1" class="st15"/></g><g><g><path d="M329.3,257.6c3.9,0,7.7-3.4,7.5-7.5c-0.2-4.1-3.3-7.5-7.5-7.5c-3.9,0-7.7,3.4-7.5,7.5C322,254.2,325.1,257.6,329.3,257.6 L329.3,257.6z"/></g></g><rect width="5" height="5" x="30" y="283.5"/><rect width="5" height="5" x="64" y="273.2"/><rect width="5" height="5" x="320.1" y="228.8"/><rect width="5" height="5" x="83.8" y="257.4"/><rect width="5" height="5" x="336.2" y="270.7"/><rect width="5" height="5" x="365" y="283.5"/><rect width="5" height="5" x="292.4" y="150.2" class="st11"/><rect width="5" height="5" x="80.3" y="203" class="st17"/><rect width="5" height="5" x="270" y="109.9" class="st11"/><rect width="5" height="5" x="344.5" y="127.2" class="st11"/></g></svg>