<svg xmlns="http://www.w3.org/2000/svg" xmlns:xlink="http://www.w3.org/1999/xlink" x="0" y="0" version="1.1" viewBox="0 0 400 400" xml:space="preserve" style="enable-background:new 0 0 400 400"><style type="text/css">.st14,.st21,.st22,.st23,.st3,.st7{stroke:#000;stroke-width:5;stroke-miterlimit:10}.st3{fill:#00b7aa}.st7{fill:none}.st14{fill:#84cfc8}.st21,.st22{fill:#d4e9f8}.st22,.st23{fill-rule:evenodd;clip-rule:evenodd}.st23{fill:none}</style><g id="Layer_1"><g><path d="M174.7,156.9l62.1-62.1l69.9,69.9l-62.1,62.1L174.7,156.9z" class="st21"/><path d="M296,153.8c11.6-7.9,17.3-22.1,14.5-35.8s-13.8-24.5-27.6-27.1c-13.8-2.6-27.9,3.3-35.6,15.1l0,0" class="st7"/><g><path d="M130.5,188.1C130.5,188.1,130.5,188.1,130.5,188.1C130.5,188.1,130.5,188.1,130.5,188.1z" class="st22"/><path d="M208.7,190.9l-55.7,7.5c-4-6.8-11.4-11.5-19.8-11.5v46c9,0,16.7-5.2,20.5-12.7l87.8,3.5L208.7,190.9z" class="st22"/></g><path d="M95.3,308.2c-8.6,0-15.9-5.5-18.6-13.2h18.6c8.6,0,15.9,5.5,18.6,13.2H95.3z M139,318.9h-18.6 c2.7-7.7,10-13.2,18.6-13.2h18.6C154.9,313.4,147.6,318.9,139,318.9z" class="st3"/><path d="M112.8,229h-6.5v6.5h6.5V229z"/><path d="M112.8,242h-6.5v6.5h6.5V242z"/><path d="M112.8,255h-6.5v6.5h6.5V255z"/><path d="M124.8,245.5h-6.5v6.5h6.5V245.5z"/><path d="M124.8,232.5h-6.5v6.5h6.5V232.5z"/><path d="M124.8,219.4h-6.5v6.5h6.5V219.4z"/><line x1="289.5" x2="262.3" y1="164.9" y2="137.8" class="st23"/><line x1="255.6" x2="307.2" y1="239.7" y2="188.1" class="st23"/><line x1="116.1" x2="116.1" y1="292.5" y2="337.5" class="st7"/><g><path d="M266.6,98.7c2.2,2.2,5.7,2.2,7.9,0.1c-2.2,2.2-2.2,5.7-0.1,7.9s5.7,2.2,7.9,0.1l-1.2,1.1 c-2.2,2.2-2.2,5.7-0.1,7.9s5.7,2.2,7.9,0.1l-0.6,0.4c-2.2,2.2-2.2,5.7-0.1,7.9s5.7,2.2,7.9,0.1l2.9-2.7l9.4-9.3l3.4,3.4 c1.3,1.3,3.4,1.3,4.7,0l6.1-6c3.2-3.2,3.2-8.3,0.1-11.5l0,0l10.5-10.4L302,56l-25.6,25.3l-8.5,8.4l-1.1,1.1 C264.5,93,264.5,96.5,266.6,98.7z" class="st14"/><g><line x1="299.1" x2="308.5" y1="121.4" y2="112.2" class="st14"/><line x1="285.9" x2="297.2" y1="118.8" y2="108.1" class="st14"/><line x1="282.3" x2="289.7" y1="106.7" y2="99.8" class="st14"/><line x1="274.5" x2="282.2" y1="98.8" y2="91.2" class="st14"/><line x1="267.8" x2="277.2" y1="89.7" y2="80.5" class="st14"/></g></g><line x1="66.7" x2="319.2" y1="338.1" y2="338.1" class="st7"/><line x1="310.2" x2="317.6" y1="184.9" y2="177.6" class="st23"/><line x1="142.8" x2="142.8" y1="189.5" y2="210" class="st7"/><line x1="168" x2="230.2" y1="210" y2="212" class="st7"/></g></g></svg>