<svg xmlns="http://www.w3.org/2000/svg" xmlns:xlink="http://www.w3.org/1999/xlink" style="enable-background:new 0 0 400 400" x="0" y="0" version="1.1" viewBox="0 0 400 400" xml:space="preserve"><style type="text/css">.st0{fill:#acd7f3;stroke:#000;stroke-width:5;stroke-miterlimit:10}.st1{fill:#fff}.st1,.st2,.st3,.st4{stroke:#000;stroke-width:5;stroke-miterlimit:10}.st2{fill:#fff;stroke-linejoin:round}.st3{fill:#00b7aa}.st4{fill:#84cfc8;stroke-linejoin:round}</style><g id="Create_Invitation"><g><ellipse cx="200.7" cy="63.7" class="st0" rx="43.9" ry="18.3"/><ellipse cx="200.7" cy="293.5" class="st1" rx="106" ry="52.2"/><path d="M222.9,53.7l-9.2-5.6h-25.9l-9.2,5.6c-1.9,1.1-3,2.4-3,3.8c0,4.5,11.3,8.1,25.2,8.1s25.2-3.6,25.2-8.1 C225.9,56.2,224.8,54.9,222.9,53.7z" class="st2"/><g><g><circle cx="169.7" cy="202.3" r="10.4" class="st1"/><path d="M189,261.5h-38.7V232c0-10.7,8.7-19.4,19.4-19.4h0c10.7,0,19.4,8.7,19.4,19.4V261.5z" class="st3"/><g><line x1="160" x2="160" y1="261.5" y2="303.6" class="st1"/><line x1="179.4" x2="179.4" y1="261.5" y2="303.6" class="st1"/></g><polyline points="169.7 191.9 150.3 191.9 150.3 239.8 169.7 239.8 169.7 191.9" class="st0"/></g><g><circle cx="230.5" cy="202.3" r="10.4" class="st1"/><path d="M240.9,202.3c0-5.7-4.6-10.4-10.4-10.4s-10.4,4.6-10.4,10.4" class="st0"/><path d="M211.2,274.6h38.7V232c0-10.7-8.7-19.4-19.4-19.4h0c-10.7,0-19.4,8.7-19.4,19.4V274.6z" class="st3"/><g><line x1="240.2" x2="240.2" y1="274.6" y2="303.6" class="st1"/><line x1="220.8" x2="220.8" y1="274.6" y2="303.6" class="st1"/></g><line x1="220.1" x2="251" y1="202.3" y2="202.3" class="st1"/></g></g><line x1="230.5" x2="304.8" y1="92.1" y2="283.6" class="st1"/><line x1="170.8" x2="96.5" y1="92.1" y2="283.6" class="st1"/><path d="M200.7,35.7c-8.1,0-14.7,6.6-14.7,14.7c0,2.6,6.6,4.7,14.7,4.7c8.1,0,14.7-2.1,14.7-4.7 C215.4,42.3,208.8,35.7,200.7,35.7z" class="st4"/></g></g></svg>