<svg xmlns="http://www.w3.org/2000/svg" xmlns:xlink="http://www.w3.org/1999/xlink" x="0" y="0" version="1.1" viewBox="0 0 400 400" xml:space="preserve" style="enable-background:new 0 0 400 400"><style type="text/css">.st1{fill:#fff}.st1,.st3,.st7{stroke:#000;stroke-width:5;stroke-miterlimit:10}.st3{fill:#00b7aa}.st7{fill:none}.st11{fill:#d4e9f8}.st15,.st21{fill:#82c7ee;stroke:#000;stroke-width:5;stroke-miterlimit:10}.st21{fill:#d4e9f8}</style><g id="Layer_1"><g><polyline points="289.3 131.6 303.7 105.7 334.2 169.7 302.6 169.7" class="st11"/><circle cx="205.6" cy="210.3" r="100.2" class="st7"/><rect width="4.4" height="4.4" x="291.3" y="89.8" class="st11"/><rect width="4.4" height="4.4" x="242.6" y="98.7" class="st11"/><path d="M205.6,310.5c54.2,0,98.3-43,100.1-96.7l-64,64c-3.2,3.2-8.3,3.7-11.8,0.9c-4-3.3-4.2-9.2-0.4-13 c2.9-3.4,21.3-17.3,7-31c-6.4-6.1-16.5-5.8-22.7,0.4l-40.2,38.3c-3.3,3.3-10.2,7-15.6,1.8c-5.4-5.2-1.9-11.1,2.2-15.2l17.5-15.7 c6-6,6.7-15.8,1.1-22.2c-6.1-7-16.9-7.3-23.3-0.8l-11.8,11.8c-2,2-5.2,2.5-7.6,0.9c-3.3-2.2-3.6-6.6-1-9.2l7.1-7.1 c6.3-6.3,7.1-16.6,1.2-23.3c-6.5-7.4-17.7-7.6-24.5-0.9l-13.3,10.5c-0.1,2.1-0.2,4.1-0.2,6.2C105.4,265.6,150.3,310.5,205.6,310.5 z" class="st3"/><path d="M172.3,140.7c6.8,6.8,17.8,6.8,24.6,0l5.9-5.9c4-4,10.4-4,14.3,0c4,4,4,10.3,0,14.3L203,163.3 c-6.8,6.8-6.8,17.8,0,24.6c6.8,6.8,17.8,6.8,24.6,0l38.2-38.2c2.9-2.9,7.7-2.9,10.6,0c2.9,2.9,2.9,7.7,0,10.6l-7.3,7.3 c-6,6-6,15.7,0,21.7s15.7,6,21.7,0l9.7-10.9c-13.3-39.7-50.8-68.3-95-68.3c-11.2,0-22,1.9-32.1,5.3l-1.2,0.7 C165.6,122.9,165.6,133.9,172.3,140.7z" class="st3"/><path d="M124.6,133.3c1.1-1.1,2.2-2.3,3.3-3.4" class="st7"/><path d="M99,176.6c3.9-12.3,9.9-23.7,17.5-33.7" class="st7"/><g><rect width="34.3" height="97.7" x="120" y="207.2" class="st15"/><rect width="61.6" height="73" x="58.5" y="231.9" class="st15"/><rect width="25.2" height="43" x="75.1" y="262" class="st15"/><line x1="131.5" x2="131.5" y1="214.2" y2="221.5" class="st15"/><line x1="143.2" x2="143.2" y1="214.2" y2="221.5" class="st15"/><line x1="131.1" x2="131.1" y1="229.2" y2="236.4" class="st15"/><line x1="142.9" x2="142.9" y1="229.2" y2="236.4" class="st15"/><line x1="131.1" x2="131.1" y1="244.1" y2="251.4" class="st15"/><line x1="142.9" x2="142.9" y1="244.1" y2="251.4" class="st15"/><line x1="69.8" x2="69.8" y1="244.1" y2="251.4" class="st15"/><line x1="81.6" x2="81.6" y1="244.1" y2="251.4" class="st15"/><line x1="96.1" x2="96.1" y1="244.1" y2="251.4" class="st15"/><line x1="107.9" x2="107.9" y1="244.1" y2="251.4" class="st15"/><line x1="131.1" x2="131.1" y1="259" y2="266.3" class="st15"/><line x1="142.9" x2="142.9" y1="259" y2="266.3" class="st15"/><line x1="131.1" x2="131.1" y1="274" y2="281.2" class="st15"/><line x1="142.9" x2="142.9" y1="274" y2="281.2" class="st15"/><line x1="131.1" x2="131.1" y1="288.9" y2="296.2" class="st15"/><line x1="142.9" x2="142.9" y1="288.9" y2="296.2" class="st15"/></g><polyline points="334.2 169.7 303.7 105.7 296.5 118.6" class="st21"/><polyline points="218 170.4 245 117.5 254 117.5 270.5 83.5 293.7 135.1 300 135.1 315.6 170.4" class="st21"/><polygon points="258.9 107.3 267.4 119.9 275.6 112.2 288.2 122.8 270.5 83.5" class="st1"/></g></g></svg>