<svg xmlns="http://www.w3.org/2000/svg" xmlns:xlink="http://www.w3.org/1999/xlink" style="enable-background:new 0 0 400 400" x="0" y="0" version="1.1" viewBox="0 0 400 400" xml:space="preserve"><style type="text/css">.st1{fill:#fff}.st1,.st14,.st15,.st16,.st3,.st7,.st8,.st9{stroke:#000;stroke-width:5;stroke-miterlimit:10}.st3{fill:#00b7aa}.st7{fill:none}.st8{fill:#54c2b8}.st9{fill:#d5edea}.st14{fill:#84cfc8}.st15{fill:#82c7ee}.st16{fill:#b0b4e5}</style><g id="Human"><g><path d="M221.9,177.4c8.3-3.8,23.1,1.6,42.8,28.7h0c6.2,0.4,10.8-5.5,8.8-11.4v0c-2.5-7.5-6.4-14.4-11.8-20.3 c-16.7-18.3-32.3-22.6-39.4-19.4" class="st14"/><g><circle cx="322.1" cy="232.2" r="8.3" class="st1"/><path d="M330,234.8c1.5-4.3-0.9-9-5.2-10.5c-4.3-1.5-9,0.9-10.5,5.2" class="st15"/><path d="M305.6,291.3h30.9v-34.1c0-8.5-6.9-15.5-15.5-15.5h0c-8.5,0-15.5,6.9-15.5,15.5V291.3z" class="st3"/><g><line x1="328.8" x2="328.8" y1="291.3" y2="314.4" class="st1"/><line x1="313.4" x2="313.4" y1="291.3" y2="314.4" class="st1"/></g><line x1="314.2" x2="337.7" y1="229.5" y2="237.4" class="st1"/></g><circle cx="279.2" cy="88.8" r="11.2" class="st15"/><path d="M223.6,302.5h-16.8l-13-32.6c2.3,0.4,4.7,0.5,7.1,0.5c25.9,0,46.9-21,46.9-46.9c0-25.9-21-46.9-46.9-46.9 s-46.9,21-46.9,46.9c0,7.7,1.9,15,5.2,21.4c-6.2,2.3-9.8,9.4-7.1,16.1l21.3,53.4h5.6h32.6h24C235.5,307.9,230.2,302.5,223.6,302.5 z" class="st14"/><path d="M309.9,102.6l-37.9-21.1c0.7-5.4-2.6-10.6-8-12.1c-3.7-1.1-7.4-0.2-10.2,2l-5.8-3.2 c-12.5-6.9-28.1-4.1-37.3,6.8l-11.5,13.5l-29.1,34.3c-29.4,35-65.1,72.5-129.9,38.7c-7.7-4-15.9,4.4-11.6,12 c20.5,36.7,58.1,96.4,125.4,96.4c63.3,0,75.8-40.2,75.8-83.6c0-24.6,12.7-37.1,27.3-32.7l4.1,1.2l17.1,5 c11.7,3.4,23.9-3.2,27.3-14.9l10.6,3.1l5.4-18.4C324.9,118.8,319.9,107.5,309.9,102.6z" class="st9"/><g><path d="M295.6,141.8l-5.8,3.2c-1.8,1-3.9,0.3-4.9-1.4l-3.2-5.8l-5.8,3.2c-1.8,1-3.9,0.3-4.9-1.4l-3.2-5.8l-5.8,3.2 c-1.8,1-3.9,0.3-4.9-1.4l-3.2-5.8" class="st7"/></g><path d="M321.6,116.3c-2.7,2.3-6.4,3.2-10,2.2c-5.7-1.7-8.9-7.6-7.2-13.3c0.5-1.7,1.4-3.1,2.5-4.3l3,1.7 C315.7,105.4,319.8,110.5,321.6,116.3z" class="st8"/><path d="M217.3,104c0.1-1.1,0.3-2.3,0.6-3.4l1.2-4.1" class="st7"/><path d="M229.9,122.5L229.9,122.5c-5.5-1.6-9.6-5.7-11.5-10.7" class="st7"/><path d="M194.8,93.8c6.2,5.9,6.6,15.6,0.9,22.1c-5.6,6.2-14.9,7.1-21.5,2.1L194.8,93.8z" class="st15"/><path d="M260.7,91.7c2-2.3,1.8-5.8-0.5-7.8c-2.3-2-5.8-1.8-7.8,0.5" class="st7"/><path d="M187.5,302.5h-16.8l-13-32.6c2.3,0.4,4.7,0.5,7.1,0.5c25.9,0,46.9-21,46.9-46.9c0-25.9-21-46.9-46.9-46.9 c-25.9,0-46.9,21-46.9,46.9c0,7.7,1.9,15,5.2,21.4c-6.2,2.3-9.8,9.4-7.1,16.1l21.3,53.4h5.6h32.6h24 C199.4,307.9,194.1,302.5,187.5,302.5z" class="st9"/><path d="M117.8,223.6c0-25.9,21-46.9,46.9-46.9s46.9,21,46.9,46.9s-21,46.9-46.9,46.9c-8.1,0-15.7-2-22.3-5.7" class="st7"/><line x1="43.9" x2="367.5" y1="314.4" y2="314.4" class="st1"/><g><polygon points="272.1 183.2 249.2 196.5 249.2 222.7 272.2 236.1 295.1 222.7 295.1 196.5" class="st15"/><g><polyline points="295.1 196.5 272.2 209.8 249.2 196.5" class="st7"/></g><line x1="272.2" x2="272.2" y1="209.8" y2="236.1" class="st16"/></g><path d="M227,166.1c-2.7,8.7,4.4,22.8,33.7,39v0c1.2,6.1-4.2,11.4-10.2,10.2h0c-7.7-1.6-15.1-4.6-21.5-9.2 c-20.2-14.3-26.4-29.3-24.1-36.7" class="st9"/></g></g></svg>