<svg xmlns="http://www.w3.org/2000/svg" xmlns:xlink="http://www.w3.org/1999/xlink" style="enable-background:new 0 0 400 400" x="0" y="0" version="1.1" viewBox="0 0 400 400" xml:space="preserve"><style type="text/css">.st0{fill:#acd7f3}.st0,.st1,.st15,.st3,.st7{stroke:#000;stroke-width:5;stroke-miterlimit:10}.st1{fill:#fff}.st3{fill:#00b7aa}.st7{fill:none}.st15{fill:#82c7ee}.st24{fill:#acd7f3}.st25{fill:#00b7aa}</style><g id="Layer_1"><g><polyline points="148.2 111.5 68.9 250.7 285.5 250.7 244.6 173.7 137.1 133.6" class="st15"/><rect width="5.4" height="5.4" x="274.4" y="161.5" class="st24"/><rect width="5.4" height="5.4" x="89.2" y="129.4" class="st25"/><rect width="5.4" height="5.4" x="247.7" y="105.2" class="st24"/><rect width="5.4" height="5.4" x="282.8" y="96.2" class="st25"/><path d="M68.9,250c0,0,66.6-5.7,66.6-117.9" class="st7"/><path d="M203,249.4c0,0-67.5-5.1-67.5-117.3" class="st7"/><line x1="248.3" x2="215.5" y1="161.3" y2="147.7" class="st7"/><line x1="211.1" x2="202" y1="145.9" y2="142.1" class="st7"/><line x1="41.8" x2="170.2" y1="295.8" y2="295.8" class="st7"/><line x1="53.3" x2="117" y1="318.4" y2="318.4" class="st7"/><line x1="63.4" x2="84.9" y1="273.1" y2="273.1" class="st7"/><line x1="91.9" x2="187.3" y1="273.1" y2="273.1" class="st7"/><line x1="124.4" x2="203.8" y1="111.3" y2="250.7" class="st7"/><g><circle cx="234.3" cy="204" r="11.7" class="st1"/><path d="M256.1,270.9h-43.7v-44c0-6.2,5-11.2,11.2-11.2h21.3c6.2,0,11.2,5,11.2,11.2V270.9z" class="st3"/><g><line x1="223.3" x2="223.3" y1="270.9" y2="318.4" class="st1"/><line x1="245.2" x2="245.2" y1="270.9" y2="318.4" class="st1"/></g><polyline points="234.3 192.3 212.4 192.3 212.4 246.4 234.3 246.4 234.3 192.3" class="st0"/></g><path d="M327.9,75.6c1.4,4.2,2.2,8.8,2.2,13.5c0,23.4-19,42.4-42.4,42.4c-5.4,0-10.5-1-15.3-2.9 c6.8,11.7,19.5,19.6,34.1,19.6c21.8,0,39.5-17.7,39.5-39.5C346,94.9,338.8,82.7,327.9,75.6z" class="st7"/><g><circle cx="292.9" cy="204" r="11.7" class="st1"/><path d="M304.7,204c0-6.5-5.2-11.7-11.7-11.7s-11.7,5.2-11.7,11.7" class="st0"/><path d="M271.1,285.7h43.7v-58.8c0-6.2-5-11.2-11.2-11.2h-21.3c-6.2,0-11.2,5-11.2,11.2V285.7z" class="st3"/><g><line x1="303.9" x2="303.9" y1="285.7" y2="318.4" class="st1"/><line x1="282" x2="282" y1="285.7" y2="318.4" class="st1"/></g><line x1="281.2" x2="316.1" y1="204" y2="204" class="st1"/></g></g></g></svg>