<svg xmlns="http://www.w3.org/2000/svg" xmlns:xlink="http://www.w3.org/1999/xlink" x="0" y="0" version="1.1" viewBox="0 0 400 400" xml:space="preserve" style="enable-background:new 0 0 400 400"><style type="text/css">.st0{fill:#acd7f3;stroke-width:5;stroke-miterlimit:10}.st0,.st1{stroke:#000}.st1,.st14,.st15,.st6,.st7,.st9{stroke-width:5;stroke-miterlimit:10}.st1{fill:#fff}.st6{fill:#d4e9f8;stroke:#d4e9f8}.st14,.st15,.st7,.st9{stroke:#000}.st7{fill:none}.st9{fill:#d5edea}.st14{fill:#84cfc8}.st15{fill:#82c7ee}.st17{fill:#fff}.st27{fill:#010101}.st29{fill:#adddd8}.st30{fill:#88d1f1;stroke:#000;stroke-width:5;stroke-miterlimit:10}</style><g id="Layer_1"><g><path d="M203.6,100.5v51.6h-15.1V165h-15.1v12.9h-15.1v12.9h-15.1v12.9h-15.1v12.9h-15.1v-12.9H98.1v-12.9H83v-12.9 H67.9V165H52.8v-12.9H37.7v-51.6h15.1V87.6h15.1V74.7h30.1v12.9h15.1v12.9h15.1V87.6h15.1V74.7h30.2v12.9h15.1v12.9L203.6,100.5z" class="st6"/><rect width="196.1" height="167.5" x="138.4" y="112.9" class="st17" transform="matrix(0.9854 -0.1703 0.1703 0.9854 -30.0466 43.1474)"/><polyline points="146.9 264.2 123.9 131.1 318.7 97.4 324.8 132.5" class="st7"/><line x1="160.1" x2="150.3" y1="294.9" y2="296.5" class="st7"/><polyline points="327.3 146.8 347.3 262.5 168 293.5" class="st7"/><rect width="5.5" height="5.5" x="137.1" y="148.4" class="st29"/><rect width="5.5" height="5.5" x="312.2" y="209.1"/><rect width="5.5" height="5.5" x="320.5" y="286.1" class="st29"/><rect width="5.5" height="5.5" x="80.9" y="123.2" class="st17"/><g><path d="M272.9,213.2c0,0-5.9-8.7-12-11c-16.4-6.3-31.4,2.1-39.1,22.1c-7.3,18.9-2.1,47.2,15.2,53.9 c4.3,1.6,7,1.8,11,1.9c3,2.7,5.2,4.4,9.4,6c17.4,6.7,40.2-10.8,47.5-29.7c7.7-19.9,2.3-36.2-14.1-42.6l0,0 c-6.3-2.4-10.7-1.8-14.2-1.3L272.9,213.2z M273.5,200.4c-5.2-2-9.2-4.8-11.9-8.2c-4.7-5.9-5.5-13.8-5.6-18.5 c1.4,0.3,3,0.8,4.8,1.5c5.2,2,9.2,4.8,11.9,8.2c4.7,5.9,5.5,13.8,5.6,18.5C276.9,201.6,275.2,201.1,273.5,200.4z" class="st9"/><path d="M256.7,213.5c0,0,10.9,17.1,26.9,10.4" class="st7"/><path d="M268.2,223.6c0,0,11.9-33.1,26.9-28.1" class="st7"/></g><g><path d="M294.2,258.6c-3.4,0-6.1,2.7-6.1,6.1c0-3.4-2.7-6.1-6.1-6.1c-3.4,0-6.1,2.7-6.1,6.1v-6.6 c0-3.4-2.7-6.1-6.1-6.1s-6.1,2.7-6.1,6.1v-16.5c0-3.4-2.7-6.1-6.1-6.1c-3.4,0-6.1,2.7-6.1,6.1v24.9V281H246c-2,0-3.7,1.6-3.7,3.7 v9.4c0,4.9,4,8.9,8.9,8.9l0,0v16.3h49v-39.6v-13.2v-1.8C300.3,261.3,297.6,258.6,294.2,258.6z" class="st0"/><g><line x1="251.3" x2="251.3" y1="266.5" y2="281" class="st0"/><line x1="263.6" x2="263.6" y1="258.1" y2="270" class="st0"/><line x1="275.8" x2="275.8" y1="264.7" y2="274.4" class="st0"/><line x1="288.1" x2="288.1" y1="264.7" y2="276.6" class="st0"/><line x1="300.3" x2="300.3" y1="266.5" y2="281" class="st0"/></g></g><g><rect width="88.3" height="24.7" x="207.7" y="118.3" class="st14" transform="matrix(0.9812 0.1929 -0.1929 0.9812 29.9414 -46.1273)"/><rect width="18.7" height="65.2" x="295.5" y="109.3" class="st14" transform="matrix(0.9812 0.1929 -0.1929 0.9812 33.0911 -56.1378)"/><rect width="18.7" height="49.4" x="313.9" y="120.8" class="st14" transform="matrix(0.9812 0.1929 -0.1929 0.9812 34.1387 -59.6332)"/><rect width="18.7" height="31" x="332.4" y="133.6" class="st14" transform="matrix(0.9812 0.1929 -0.1929 0.9812 35.1863 -63.1287)"/><rect width="18.7" height="65.2" x="190" y="87.8" class="st14" transform="matrix(-0.9812 -0.1929 0.1929 -0.9812 371.7076 276.9244)"/><rect width="18.7" height="49.4" x="171.5" y="92.1" class="st14" transform="matrix(-0.9812 -0.1929 0.1929 -0.9812 335.8087 266.1652)"/><rect width="18.7" height="31" x="153" y="97.6" class="st14" transform="matrix(-0.9812 -0.1929 0.1929 -0.9812 299.9098 255.406)"/><g><path d="M226.2,140.7c3.3,0.6,6.5-1.5,7.2-4.8c-0.6,3.3,1.5,6.5,4.8,7.2c3.3,0.6,6.5-1.5,7.2-4.8l-0.2,1.3 c-0.6,3.3,1.5,6.5,4.8,7.2c3.3,0.6,6.5-1.5,7.2-4.8l-0.4,1.6c-0.6,3.3,1.5,6.5,4.8,7.2c3.3,0.6,6.5-1.5,7.2-4.8l2-9.8l2.8-14.2 l5.2,1c2,0.4,3.9-0.9,4.3-2.9l1.8-9.3c0.9-4.8-2.2-9.5-7.1-10.5l0,0l3.1-16l-48.1-9.3l-7.6,38.9l-2.5,13l-1.4,6.9 C220.7,136.9,222.9,140.1,226.2,140.7z" class="st1"/><g><line x1="270.8" x2="273.6" y1="136" y2="121.8" class="st1"/><line x1="257.2" x2="260.8" y1="141.9" y2="123.4" class="st1"/><line x1="245.4" x2="248.7" y1="138.2" y2="121.3" class="st1"/><line x1="233.3" x2="236.7" y1="136.8" y2="119.1" class="st1"/><line x1="222.7" x2="225.5" y1="126.6" y2="112.4" class="st1"/></g></g></g><rect width="41.3" height="33.7" x="79.7" y="215.7" class="st15" transform="matrix(0.9371 -0.349 0.349 0.9371 -74.8691 49.645)"/><g><g><rect width="4.2" height="4.2" x="89.9" y="227.3" class="st27" transform="matrix(0.9371 -0.349 0.349 0.9371 -74.2616 46.543)"/><rect width="4.2" height="4.2" x="102.4" y="222.6" class="st27" transform="matrix(0.9371 -0.349 0.349 0.9371 -71.8568 50.6029)"/></g><g><rect width="4.2" height="4.2" x="94.1" y="238.4" class="st27" transform="matrix(0.9371 -0.349 0.349 0.9371 -77.8813 48.687)"/><rect width="4.2" height="4.2" x="106.6" y="233.8" class="st27" transform="matrix(0.9371 -0.349 0.349 0.9371 -75.4765 52.7469)"/></g></g><rect width="41.3" height="33.7" x="151.5" y="189" class="st15" transform="matrix(0.9371 -0.349 0.349 0.9371 -61.0252 73.0173)"/><g><g><rect width="4.2" height="4.2" x="161.7" y="200.5" class="st27" transform="matrix(0.9371 -0.349 0.349 0.9371 -60.4177 69.9154)"/><rect width="4.2" height="4.2" x="174.2" y="195.9" class="st27" transform="matrix(0.9371 -0.349 0.349 0.9371 -58.013 73.9753)"/></g><g><rect width="4.2" height="4.2" x="165.9" y="211.7" class="st27" transform="matrix(0.9371 -0.349 0.349 0.9371 -64.0374 72.0594)"/><rect width="4.2" height="4.2" x="178.3" y="207" class="st27" transform="matrix(0.9371 -0.349 0.349 0.9371 -61.6327 76.1193)"/></g></g><rect width="35.3" height="33.7" x="118.6" y="202.4" class="st15" transform="matrix(0.9371 -0.349 0.349 0.9371 -67.9471 61.3312)"/><g><path d="M121.8,287.7c-1.2-3.2-4.7-4.8-7.9-3.6c3.2-1.2,4.8-4.7,3.6-7.9s-4.7-4.8-7.9-3.6l6.2-2.3 c3.2-1.2,4.8-4.7,3.6-7.9s-4.7-4.8-7.9-3.6l15.5-5.7c3.2-1.2,4.8-4.7,3.6-7.9s-4.7-4.8-7.9-3.6l-23.3,8.7l-13.6,5l-1.8-5 c-0.7-1.9-2.8-2.9-4.7-2.2l-8.9,3.3c-4.6,1.7-7,6.9-5.3,11.5l0,0L50,268.6l17,45.9l37.1-13.8l12.4-4.6l1.7-0.6 C121.4,294.4,123,290.8,121.8,287.7z" class="st14"/><g><line x1="99.5" x2="85.9" y1="250.2" y2="255.3" class="st30"/><line x1="111.6" x2="100.5" y1="258.8" y2="262.9" class="st30"/><line x1="109.7" x2="100.7" y1="272.6" y2="276" class="st30"/><line x1="114" x2="102.9" y1="284.1" y2="288.2" class="st30"/><line x1="116.6" x2="103" y1="296.2" y2="301.2" class="st30"/></g></g></g></g></svg>