<svg xmlns="http://www.w3.org/2000/svg" xmlns:xlink="http://www.w3.org/1999/xlink" style="enable-background:new 0 0 400 400" x="0" y="0" version="1.1" viewBox="0 0 400 400" xml:space="preserve"><style type="text/css">.st1{fill:#fff}.st1,.st14,.st15,.st7,.st8,.st9{stroke:#000;stroke-width:5;stroke-miterlimit:10}.st7{fill:none}.st8{fill:#54c2b8}.st9{fill:#d5edea}.st14{fill:#84cfc8}.st15{fill:#82c7ee}.st20{fill:#88d1f1}.st21{fill:#d4e9f8;stroke:#000;stroke-width:5;stroke-miterlimit:10}.st26{fill:#84cfc8}.st27{fill:#010101}</style><g id="Layer_1"><g><rect width="5.4" height="5.4" x="38" y="280.6" class="st27"/><rect width="5.4" height="5.4" x="46.4" y="236.2" class="st20"/><rect width="5.4" height="5.4" x="362" y="98.3" class="st27"/><rect width="5.4" height="5.4" x="323.4" y="59.7" class="st27"/><rect width="5.4" height="5.4" x="352.9" y="116.3" class="st20"/><polyline points="101.3 88.1 66.6 88.1 66.6 141" class="st26"/><polyline points="66.6 141 66.6 306.3 336.8 306.3 336.8 88.1 101.3 88.1" class="st26"/><polyline points="66.6 141 66.6 306.3 336.8 306.3 336.8 88.1 115.3 88.1" class="st7"/><rect width="237.3" height="187.1" x="83" y="103.7" class="st1"/><polyline points="124 246.4 277.5 246.4 277.5 128.3" class="st7"/><path d="M239.5,127.7C188.8,197.2,123,197.8,123,197.8" class="st1"/><polyline points="224.7 128.1 241.1 128.1 241.1 142.7" class="st7"/><rect width="12.3" height="15" x="137.9" y="231.3" class="st9"/><rect width="12.3" height="25.2" x="159.6" y="221.2" class="st14"/><rect width="12.3" height="36.5" x="181.2" y="209.9" class="st9"/><rect width="12.3" height="45.9" x="202.8" y="200.5" class="st21"/><rect width="12.3" height="64.1" x="224.5" y="182.2" class="st8"/><rect width="12.3" height="87.6" x="246.1" y="158.7" class="st15"/><line x1="124" x2="140.4" y1="263" y2="263" class="st1"/><line x1="151.3" x2="280.4" y1="263" y2="263" class="st1"/></g></g></svg>