<svg xmlns="http://www.w3.org/2000/svg" width="50" height="67" fill="none" viewBox="0 0 50 67"><path stroke="#000" stroke-linecap="round" stroke-linejoin="round" stroke-width="2" d="M37.1248 1.37109V12.4127H48.1664"/><path stroke="#000" stroke-linecap="round" stroke-linejoin="round" stroke-width="2" d="M48.1664 61.3718C48.1664 63.5714 46.3667 65.3711 44.1671 65.3711H5.79252C3.60304 65.3711 1.82812 63.5962 1.82812 61.4067V5.33549C1.82812 3.15507 3.6121 1.37109 5.79252 1.37109H36.7915C37.383 1.37109 37.9507 1.60403 38.3717 2.01949L47.5154 11.0424C47.9319 11.4534 48.1664 12.0143 48.1664 12.5995V61.3718Z"/><path fill="#FF8AC6" d="M24.9975 49.4159C33.8585 49.4159 41.0418 42.2326 41.0418 33.3715C41.0418 24.5105 33.8585 17.3271 24.9975 17.3271C16.1364 17.3271 8.95312 24.5105 8.95312 33.3715C8.95312 42.2326 16.1364 49.4159 24.9975 49.4159Z"/><path stroke="#000" stroke-linecap="round" stroke-linejoin="round" stroke-width="2" d="M15.3281 34.0383L22.5321 40.9896L34.6652 27.9718"/></svg>