<svg xmlns="http://www.w3.org/2000/svg" width="48" height="39"><g fill="none" fill-rule="evenodd" transform="translate(0 .844)"><path fill="#E7DFFF" fill-rule="nonzero" d="M44.461 23.37c0-11.018-8.932-19.95-19.95-19.95-11.019 0-19.95 8.932-19.95 19.95a19.19 19.19 0 00.41 3.99h39.08a19.19 19.19 0 00.41-3.99z"/><path d="M6.03 30.78c.08.206.16.411.252.605a2.84 2.84 0 01-.251-.604zM5.632 29.766zM7.023 32.947l.148.24-.148-.24zM4.97 27.36h8.859a10.59 10.59 0 01-.149-1.71c0-5.98 4.85-10.83 10.83-10.83 5.982 0 10.83 4.85 10.83 10.83a10.59 10.59 0 01-.147 1.71h8.858c0 .172-.08.331-.114.49a19.95 19.95 0 10-38.852 0c-.035-.159-.08-.318-.114-.49zM43.39 29.766zM42.74 31.43zM41.999 32.947l-.149.24.149-.24z"/><path fill="#E25920" fill-rule="nonzero" d="M24.51 0A23.325 23.325 0 006.03 37.62h36.96A23.325 23.325 0 0024.51 0z"/><rect width="3.42" height="1.14" x="39.901" y="22.801" fill="#FFB675" fill-rule="nonzero" rx=".5"/><rect width="3.42" height="1.14" x="5.7" y="22.801" fill="#FF7139" fill-rule="nonzero" rx=".5"/><rect width="1.14" height="3.42" x="23.941" y="4.56" fill="#FF7139" fill-rule="nonzero" rx=".5"/><path fill="#FF7139" fill-rule="nonzero" d="M14.928 6.962l.118-.076a.5.5 0 01.69.152l1.305 2.038a.5.5 0 01-.152.691l-.118.075a.5.5 0 01-.69-.151l-1.305-2.039a.5.5 0 01.152-.69zM8.019 14.02l.07-.12a.5.5 0 01.683-.184l2.096 1.21a.5.5 0 01.183.683l-.07.121a.5.5 0 01-.683.183l-2.096-1.21a.5.5 0 01-.183-.683z"/><path fill="#FFB675" fill-rule="nonzero" d="M38.19 15.03l2.04-1.305a.5.5 0 01.69.152l.075.118a.5.5 0 01-.151.69l-2.039 1.305a.5.5 0 01-.69-.152l-.076-.118a.5.5 0 01.152-.69z"/><path fill="#FF7139" fill-rule="nonzero" d="M31.966 9.158l1.21-2.096a.5.5 0 01.683-.183l.12.07a.5.5 0 01.184.683l-1.21 2.096a.5.5 0 01-.683.183l-.121-.07a.5.5 0 01-.183-.683z"/><circle cx="24.511" cy="25.651" r="6.27" fill="#FF7139" fill-rule="nonzero"/><circle cx="24.511" cy="25.594" r="3.99" fill="#FFB675" fill-rule="nonzero"/><path fill="#FFB675" fill-rule="nonzero" d="M25.08 25.468a1.277 1.277 0 01-.535-.125 1.14 1.14 0 01-.468-1.54l8.608-16.359a1.142 1.142 0 112.018 1.072l-8.62 16.348a1.14 1.14 0 01-1.002.604z"/><path fill="#E7DFFF" fill-rule="nonzero" d="M43.96 23.37a19.95 19.95 0 10-39.502 3.99h39.091c.27-1.312.408-2.649.41-3.99z"/><path fill="#FF7139" fill-rule="nonzero" d="M5.518 30.78c.09.206.17.411.25.605a7.699 7.699 0 01-.25-.604zM5.13 29.766zM6.521 32.947l.137.24-.137-.24zM4.458 27.36h8.869a10.59 10.59 0 01-.148-1.71c0-5.98 4.849-10.83 10.83-10.83s10.83 4.85 10.83 10.83a12.073 12.073 0 01-.148 1.71h8.858c0 .172-.08.331-.114.49a19.95 19.95 0 10-38.852 0c-.023-.159-.091-.318-.125-.49zM42.888 29.766c.068-.216.148-.444.217-.672-.069.228-.149.456-.217.672zM42.238 31.43c.091-.193.171-.398.25-.604-.079.206-.159.41-.25.605zM41.497 32.947l-.148.24.148-.24z"/><path fill="#FF7139" fill-rule="nonzero" d="M24.009 0A23.325 23.325 0 005.529 37.62h36.96A23.325 23.325 0 0024.009 0z"/><rect width="3.42" height="1.14" x="39.399" y="22.801" fill="#FFD5B2" fill-rule="nonzero" stroke="#FFD5B2" stroke-width=".4" rx=".5"/><rect width="3.42" height="1.14" x="5.187" y="22.801" fill="#FFD5B2" fill-rule="nonzero" stroke="#FFD5B2" stroke-width=".4" rx=".5" transform="rotate(-180 6.897 23.37)"/><rect width="3.42" height="1.14" x="22.299" y="5.7" fill="#FFD5B2" fill-rule="nonzero" stroke="#FFD5B2" stroke-width=".4" rx=".5" transform="rotate(-90 24.009 6.27)"/><path fill="#FFD5B2" fill-rule="nonzero" stroke="#FFD5B2" stroke-width=".4" d="M15.578 9.701l-1.304-2.039a.5.5 0 01.152-.69l.118-.076a.5.5 0 01.69.152l1.305 2.039a.5.5 0 01-.152.69l-.118.076a.5.5 0 01-.69-.152zM9.797 15.92l-2.095-1.21a.5.5 0 01-.183-.683l.07-.12a.5.5 0 01.683-.184l2.095 1.21a.5.5 0 01.183.683l-.07.122a.5.5 0 01-.683.183zM37.679 15.033l2.038-1.305a.5.5 0 01.691.152l.075.118a.5.5 0 01-.151.69l-2.039 1.305a.5.5 0 01-.69-.152l-.076-.118a.5.5 0 01.152-.69z"/><circle cx="24.009" cy="25.651" r="6.27" fill="#FFA266" fill-rule="nonzero"/><circle cx="24.009" cy="25.594" r="3.99" fill="#FFD5B2" fill-rule="nonzero"/><path fill="#FFD5B2" fill-rule="nonzero" d="M24.579 25.468a1.277 1.277 0 01-.536-.125 1.14 1.14 0 01-.479-1.54l8.619-16.359a1.142 1.142 0 012.018 1.072l-8.619 16.348a1.14 1.14 0 01-1.003.604z"/></g></svg>